<?xml version="1.0" standalone="no"?>
<!DOCTYPE svg PUBLIC "-//W3C//DTD SVG 20010904//EN"
 "http://www.w3.org/TR/2001/REC-SVG-20010904/DTD/svg10.dtd">
<svg version="1.0" xmlns="http://www.w3.org/2000/svg"
 width="525.000000pt" height="525.000000pt" viewBox="0 0 525.000000 525.000000"
 preserveAspectRatio="xMidYMid meet">
<metadata>
Created by potrace 1.11, written by Peter Selinger 2001-2013
</metadata>
<g transform="translate(0.000000,525.000000) scale(0.100000,-0.100000)"
fill="#000000" stroke="none">
<path d="M434 4861 c-2 -2 -4 -976 -4 -2163 l0 -2158 1311 0 c871 0 1308 3
1304 10 -3 5 -19 10 -35 10 -16 0 -32 5 -35 10 -3 6 -17 10 -30 10 -13 0 -26
4 -29 9 -3 5 -17 12 -31 15 -29 7 -140 73 -181 108 -108 90 -200 196 -228 263
-67 160 -93 296 -101 535 -7 200 -23 477 -30 515 -42 217 -110 351 -244 483
-205 203 -469 308 -933 373 -82 11 -111 29 -48 29 31 0 78 9 240 46 510 115
871 338 1017 629 75 148 100 346 67 535 -14 85 -55 214 -83 264 -11 18 -25 44
-33 57 -27 48 -118 156 -165 195 -119 98 -178 133 -358 210 -20 9 -1363 23
-1371 15z"/>
<path d="M3822 4862 c-602 -1 -911 -5 -907 -12 3 -6 13 -10 21 -10 21 0 190
-82 249 -122 154 -101 255 -211 324 -353 66 -135 82 -202 88 -374 6 -144 0
-192 -35 -306 -68 -225 -257 -418 -545 -559 -222 -108 -494 -185 -764 -216
-47 -5 -87 -11 -89 -13 -2 -2 49 -9 113 -16 220 -23 437 -72 558 -126 111 -50
239 -117 255 -135 3 -3 31 -25 63 -49 103 -78 208 -199 254 -292 43 -86 83
-204 102 -297 6 -29 11 -166 11 -305 0 -557 69 -761 321 -953 47 -36 184 -112
244 -134 123 -47 157 -51 413 -48 l243 3 -1 2159 c0 1188 -1 2160 -3 2160 -1
1 -413 0 -915 -2z"/>
</g>
</svg>
